<?xml version="1.0" encoding="iso-8859-1"?>
<svg version="1.1" id="Capa_1" 
	xmlns="http://www.w3.org/2000/svg" 
	xmlns:xlink="http://www.w3.org/1999/xlink" x="0px" y="0px" viewBox="0 0 490.629 490.629" style="enable-background:new 0 0 490.629 490.629;" xml:space="preserve">
	<g>
		<polygon style="fill:#D4E1F4;" points="172.931,271.459 154.122,346.692 67.918,346.692 67.918,271.459 	"/>
		<polygon style="fill:#D4E1F4;" points="423.184,271.459 423.184,346.692 336.98,346.692 318.171,271.459 	"/>
	</g>
	<g>
		<polygon style="fill:#00BBD3;" points="62.171,97.483 81.502,148.161 79.412,219.214 20.898,219.214 	"/>
		<polygon style="fill:#00BBD3;" points="428.931,97.483 470.204,219.214 411.69,219.214 409.6,148.161 	"/>
	</g>
	<path style="fill:#4DCFE0;" d="M475.429,219.214V393.19H297.796l-31.347-121.731h-41.796L193.306,393.19H15.673V219.214h5.224
	h58.514H411.69h58.514H475.429z M423.184,346.692v-75.233H318.171l18.808,75.233H423.184z M154.122,346.692l18.808-75.233H67.918
	v75.233H154.122z"/>
	<g>
		<path style="fill:#3A2C51;" d="M423.184,362.365H336.98c-7.314,0-13.584-4.702-15.151-12.016l-18.808-75.233
		c-1.045-4.702,0-9.404,2.612-13.584c3.135-3.657,7.314-6.269,12.539-6.269h105.012c8.882,0,15.673,6.792,15.673,15.673v75.233
		C438.857,355.573,432.065,362.365,423.184,362.365z M348.996,331.018h58.514v-43.886h-69.486L348.996,331.018z"/>
		<path style="fill:#3A2C51;" d="M154.122,362.365H67.918c-8.882,0-15.673-6.792-15.673-15.673v-75.233
		c0-8.882,6.792-15.673,15.673-15.673h105.012c4.702,0,9.404,2.09,12.539,6.269c3.135,3.657,4.18,8.882,2.612,13.584l-18.808,75.233
		C167.706,357.663,161.437,362.365,154.122,362.365z M83.592,331.018h58.514l10.971-43.886H83.592V331.018z"/>
		<path style="fill:#3A2C51;" d="M481.698,205.108L443.559,92.781c-2.09-6.269-7.837-10.449-14.629-10.449
		c-6.792,0-12.539,3.657-15.151,9.927l-19.331,50.678c-0.522,2.09-1.045,4.18-1.045,6.269l2.09,54.335H95.608l1.567-54.857
		c0-2.09-0.522-4.18-1.045-6.269L76.8,91.737c-2.612-6.269-8.359-10.449-15.151-9.927c-6.792,0-12.539,4.18-14.629,10.449
		L9.404,205.108C3.657,207.72,0,212.945,0,219.214V393.19c0,8.882,6.792,15.673,15.673,15.673h177.633
		c7.314,0,13.584-4.702,15.151-12.016l28.212-109.714h17.241l28.212,109.714c1.567,6.792,7.837,12.016,15.151,12.016h177.633
		c8.882,0,15.673-6.792,15.673-15.673V219.214C491.102,212.945,487.445,207.72,481.698,205.108z M425.273,150.773l2.612-7.314
		l20.376,60.082h-21.42L425.273,150.773z M63.216,143.981l2.612,7.314l-1.567,52.245h-21.42L63.216,143.981z M459.755,377.516
		H309.812L281.6,267.802c-1.567-7.314-7.837-12.016-15.151-12.016h-41.796c-7.314,0-13.584,4.702-15.151,12.016L181.29,377.516
		H31.347V234.888h428.408V377.516z"/>
	</g>
</svg>
